<svg width="80" height="36" viewBox="0 0 80 36" fill="none" xmlns="http://www.w3.org/2000/svg">
<g id="iconlogo 2" clip-path="url(#clip0_10_2)">
<g id="SvgjsG1443">
<path id="Vector" d="M24.1463 0H2.19512C0.98279 0 0 1.09645 0 2.44898V33.551C0 34.9036 0.98279 36 2.19512 36H24.1463C25.3587 36 26.3415 34.9036 26.3415 33.551V2.44898C26.3415 1.09645 25.3587 0 24.1463 0Z" fill="#01AAC1"/>
</g>
<g id="SvgjsG1444">
<path id="Vector_2" d="M22.9065 22.3468C22.9073 22.3876 22.906 22.4283 22.9044 22.468C22.9034 22.4923 22.9047 22.5163 22.9032 22.5408C22.9021 22.5566 22.9003 22.572 22.8993 22.5877L22.897 22.616C22.5124 28.2618 18.2539 32.6737 13.1705 32.6737C7.7912 32.6737 3.41464 27.7909 3.41464 21.7897C3.41464 20.5276 4.33183 19.5043 5.46313 19.5043C6.59442 19.5043 7.51161 20.5276 7.51161 21.7897C7.51161 25.2709 10.0502 28.1032 13.1707 28.1032C15.8371 28.1032 18.1067 26.0087 18.6828 23.1871L11.7216 15.4209C10.9217 14.5285 10.9217 13.0816 11.7216 12.1891C12.5218 11.2967 13.8185 11.2967 14.6187 12.1891L22.3074 20.767C22.3231 20.7844 22.3361 20.803 22.351 20.8207C22.3761 20.8507 22.4012 20.8804 22.4248 20.9119C22.4468 20.941 22.467 20.9707 22.4875 21.0004C22.5072 21.0293 22.5266 21.0582 22.5451 21.0879C22.5656 21.121 22.5848 21.1547 22.6035 21.1887C22.6193 21.2176 22.635 21.2467 22.6498 21.2764C22.6673 21.3118 22.6837 21.3472 22.6993 21.3832C22.7131 21.4143 22.7264 21.4458 22.7387 21.4778C22.7522 21.5129 22.7648 21.548 22.7765 21.5834C22.7883 21.6185 22.7993 21.6534 22.8095 21.6891C22.819 21.7231 22.8277 21.7568 22.8359 21.791C22.8451 21.829 22.8536 21.8673 22.861 21.9062C22.8674 21.9399 22.8726 21.9736 22.8777 22.0073C22.8836 22.0464 22.889 22.0859 22.8931 22.1256C22.8967 22.1616 22.899 22.1975 22.901 22.2335C22.9033 22.271 22.9053 22.3084 22.9059 22.3461L22.9065 22.3468ZM3.43472 13.8646C3.43396 13.8241 3.43553 13.7831 3.43706 13.7431C3.43808 13.7188 3.4368 13.6949 3.43833 13.6703C3.43935 13.6546 3.44114 13.6392 3.44216 13.6234L3.44445 13.5951C3.82906 7.9493 8.08754 3.53741 13.171 3.53741C18.5503 3.53741 22.9268 8.42024 22.9268 14.4214C22.9268 15.6835 22.0097 16.7068 20.8784 16.7068C19.7471 16.7068 18.8299 15.6836 18.8299 14.4214C18.8299 10.9403 16.2913 8.1079 13.1708 8.1079C10.5044 8.1079 8.2348 10.2024 7.6587 13.024L14.6199 20.7902C15.4198 21.6826 15.4198 23.1296 14.6199 24.022C14.2199 24.4683 13.6957 24.6914 13.1713 24.6914C12.647 24.6914 12.1228 24.4683 11.7228 24.022L4.0341 15.4441C4.01847 15.4267 4.00543 15.4081 3.99056 15.3904C3.96546 15.3604 3.94035 15.3307 3.91678 15.2993C3.89477 15.2701 3.87455 15.2404 3.85407 15.2107C3.83436 15.1818 3.8149 15.153 3.79646 15.1232C3.77599 15.0901 3.75678 15.0564 3.73809 15.0224C3.72221 14.9936 3.70657 14.9644 3.69171 14.9347C3.67429 14.8993 3.65789 14.8639 3.64226 14.8279C3.62845 14.7965 3.61541 14.7654 3.60287 14.7334C3.58932 14.6985 3.57678 14.6631 3.56501 14.6277C3.55324 14.5929 3.54224 14.558 3.532 14.5223C3.52227 14.4886 3.51356 14.4547 3.50536 14.4204C3.49614 14.3821 3.48769 14.3441 3.48026 14.3052C3.47384 14.2715 3.46871 14.2378 3.46357 14.2041C3.45767 14.165 3.45227 14.1255 3.44819 14.0858C3.44462 14.0499 3.44233 14.0139 3.44028 13.9779C3.43799 13.9405 3.43595 13.903 3.43544 13.8653L3.43472 13.8646Z" fill="#111111"/>
</g>
<g id="SvgjsG1445">
<path id="Vector_3" d="M46.2769 21.3337C46.2775 21.3653 46.2764 21.3967 46.2753 21.4273C46.2745 21.4461 46.2754 21.4646 46.2743 21.4836C46.2735 21.4957 46.2721 21.5076 46.2713 21.5198L46.2695 21.5417C45.9724 25.903 42.6828 29.3113 38.7561 29.3113C34.6006 29.3113 31.2195 25.5393 31.2195 20.9032C31.2195 19.9282 31.928 19.1378 32.8019 19.1378C33.6758 19.1378 34.3843 19.9283 34.3843 20.9032C34.3843 23.5924 36.3454 25.7804 38.7559 25.7804C40.8157 25.7804 42.5689 24.1623 43.014 21.9827L37.6367 15.9836C37.0188 15.2942 37.0188 14.1764 37.6367 13.4869C38.2548 12.7975 39.2566 12.7975 39.8747 13.4869L45.8143 20.1134C45.8263 20.1269 45.8364 20.1412 45.8479 20.1549C45.8673 20.1781 45.8867 20.2011 45.9049 20.2253C45.9219 20.2479 45.9375 20.2708 45.9534 20.2938C45.9686 20.3161 45.9836 20.3384 45.9979 20.3613C46.0137 20.3869 46.0285 20.4129 46.0429 20.4392C46.0552 20.4615 46.0673 20.484 46.0788 20.507C46.0922 20.5343 46.1049 20.5617 46.117 20.5895C46.1276 20.6135 46.1379 20.6378 46.1474 20.6625C46.1579 20.6896 46.1676 20.7168 46.1766 20.7441C46.1857 20.7712 46.1942 20.7982 46.2022 20.8257C46.2095 20.852 46.2162 20.878 46.2225 20.9045C46.2297 20.9338 46.2362 20.9634 46.2419 20.9934C46.2469 21.0195 46.2508 21.0455 46.2548 21.0715C46.2594 21.1018 46.2635 21.1322 46.2667 21.1629C46.2695 21.1907 46.2712 21.2185 46.2728 21.2463C46.2746 21.2752 46.2765 21.3046 46.2769 21.3337ZM31.235 14.7805C31.2344 14.7492 31.2356 14.7176 31.2368 14.6867C31.2376 14.6679 31.2366 14.6494 31.2378 14.6304C31.2386 14.6183 31.24 14.6064 31.2407 14.5942L31.2425 14.5724C31.5396 10.211 34.8293 6.80272 38.756 6.80272C42.9114 6.80272 46.2925 10.5747 46.2925 15.2108C46.2925 16.1858 45.584 16.9762 44.7101 16.9762C43.8363 16.9762 43.1278 16.1858 43.1278 15.2108C43.1278 12.5216 41.1667 10.3337 38.7561 10.3337C36.6964 10.3337 34.9431 11.9517 34.4981 14.1313L39.8753 20.1305C40.4933 20.8199 40.4933 21.9376 39.8753 22.6271C39.5664 22.9718 39.1615 23.1441 38.7564 23.1441C38.3513 23.1441 37.9464 22.9718 37.6374 22.6271L31.6978 16.0006C31.6857 15.9871 31.6756 15.9728 31.6641 15.9591C31.6447 15.9359 31.6254 15.913 31.6071 15.8887C31.5901 15.8662 31.5745 15.8432 31.5587 15.8203C31.5435 15.798 31.5284 15.7757 31.5142 15.7527C31.4984 15.7271 31.4835 15.7011 31.4691 15.6748C31.4568 15.6525 31.4448 15.63 31.4333 15.6071C31.4198 15.5797 31.4072 15.5524 31.3951 15.5246C31.3844 15.5003 31.3743 15.4762 31.3647 15.4515C31.3542 15.4246 31.3445 15.3973 31.3354 15.3699C31.3263 15.343 31.3178 15.3161 31.3099 15.2885C31.3024 15.2625 31.2957 15.2362 31.2893 15.2098C31.2822 15.1802 31.2757 15.1508 31.2699 15.1208C31.265 15.0948 31.261 15.0687 31.257 15.0427C31.2525 15.0125 31.2483 14.982 31.2452 14.9513C31.2424 14.9235 31.2406 14.8957 31.2391 14.8679C31.2373 14.839 31.2354 14.8097 31.235 14.7805ZM49.2702 12.7611C50.1441 12.7611 50.8526 13.5516 50.8526 14.5265V27.5467C50.8526 28.5216 50.144 29.3121 49.2702 29.3121C48.3963 29.3121 47.6878 28.5216 47.6878 27.5467V14.5265C47.6878 13.5515 48.3963 12.7611 49.2702 12.7611ZM47.8084 9.24319C47.7689 9.13727 47.7392 9.02469 47.7194 8.91214C47.6976 8.79959 47.6878 8.68262 47.6878 8.56788C47.6878 8.45313 47.6976 8.33616 47.7194 8.22361C47.7392 8.11106 47.7689 7.99851 47.8084 7.89259C47.848 7.78667 47.8974 7.68294 47.9548 7.58804C48.0121 7.49095 48.0774 7.40047 48.1506 7.31883C48.2238 7.23718 48.3049 7.16436 48.3919 7.10036C48.477 7.03636 48.5699 6.98119 48.6649 6.93707C48.7598 6.89295 48.8607 6.85985 48.9616 6.83777C49.4759 6.72079 50.0218 6.91059 50.3898 7.31886C50.461 7.40051 50.5282 7.49098 50.5856 7.58808C50.643 7.68298 50.6924 7.7867 50.732 7.89262C50.7715 7.99854 50.8012 8.11109 50.821 8.22364C50.8427 8.33619 50.8526 8.45317 50.8526 8.56791C50.8526 8.68265 50.8427 8.79963 50.821 8.91217C50.8012 9.02472 50.7715 9.13727 50.732 9.24319C50.6924 9.34912 50.643 9.45284 50.5856 9.54774C50.5282 9.64484 50.461 9.73531 50.3898 9.81695C50.3166 9.8986 50.2355 9.97142 50.1485 10.0354C50.0634 10.0994 49.9704 10.1546 49.8755 10.1987C49.7805 10.2428 49.6797 10.2759 49.5788 10.298C49.4779 10.3223 49.373 10.3333 49.2702 10.3333C49.1674 10.3333 49.0625 10.3223 48.9616 10.298C48.8607 10.2759 48.7599 10.2428 48.6649 10.1987C48.57 10.1546 48.477 10.0994 48.3919 10.0354C48.3049 9.97143 48.2238 9.8986 48.1506 9.81695C48.0774 9.73531 48.0122 9.64484 47.9548 9.54774C47.8974 9.45284 47.8479 9.34912 47.8084 9.24319ZM58.0313 12.7611C61.2021 12.7611 63.7815 15.6393 63.7815 19.1767V27.547C63.7815 28.522 63.073 29.3124 62.1991 29.3124C61.3252 29.3124 60.6167 28.5219 60.6167 27.547V19.1767C60.6167 17.5862 59.457 16.2921 58.0312 16.2921C56.6054 16.2921 55.4457 17.586 55.4457 19.1767V27.547C55.4457 28.522 54.7372 29.3124 53.8633 29.3124C52.9894 29.3124 52.2809 28.5219 52.2809 27.547V14.5268C52.2809 13.5518 52.9894 12.7614 53.8633 12.7614C54.4296 12.7614 54.9249 13.0944 55.2046 13.5934C56.0399 13.0649 57.0043 12.7611 58.0313 12.7611ZM72.6018 12.8053C76.6812 12.8053 80 16.5078 80 21.0591V27.5471C80 28.5221 79.2915 29.3125 78.4176 29.3125C77.5437 29.3125 76.8352 28.5221 76.8352 27.5471V21.0591C76.8352 18.4551 74.9363 16.3366 72.6022 16.3366C70.2682 16.3366 68.3693 18.4551 68.3693 21.0591V27.5471C68.3693 28.5221 67.6607 29.3125 66.7869 29.3125C65.913 29.3125 65.2045 28.5221 65.2045 27.5471V8.56839C65.2045 7.59341 65.913 6.803 66.7869 6.803C67.6607 6.803 68.3693 7.59347 68.3693 8.56839V14.2959C69.5695 13.358 71.0284 12.8053 72.6018 12.8053Z" fill="white"/>
</g>
</g>
<defs>
<clipPath id="clip0_10_2">
<rect width="80" height="36" fill="white"/>
</clipPath>
</defs>
</svg>
